<mxfile host="app.diagrams.net" agent="Mozilla/5.0 (Windows NT 10.0; Win64; x64) AppleWebKit/537.36 (KHTML, like Gecko) Chrome/126.0.0.0 Safari/537.36 Edg/126.0.0.0" version="24.7.7">
  <diagram name="Page-1" id="zJ17UTxlqdSrX6OBl4_O">
    <mxGraphModel dx="-74" dy="793" grid="1" gridSize="10" guides="1" tooltips="1" connect="1" arrows="1" fold="1" page="1" pageScale="1" pageWidth="850" pageHeight="1100" math="1" shadow="0">
      <root>
        <mxCell id="0" />
        <mxCell id="1" parent="0" />
        <mxCell id="dL0ZDPhnh0uilclcxEB1-1" value="" style="rounded=1;whiteSpace=wrap;html=1;fillColor=#FFFDF7;strokeColor=#998080;fontFamily=Times New Roman;" parent="1" vertex="1">
          <mxGeometry x="1787" y="50.5" width="240" height="339.5" as="geometry" />
        </mxCell>
        <mxCell id="dL0ZDPhnh0uilclcxEB1-2" value="Voice / unvoice&amp;nbsp;" style="rounded=1;whiteSpace=wrap;html=1;strokeColor=default;gradientColor=none;fontFamily=Times New Roman;" parent="1" vertex="1">
          <mxGeometry x="2412.5" y="290" width="55" height="30" as="geometry" />
        </mxCell>
        <mxCell id="dL0ZDPhnh0uilclcxEB1-3" style="edgeStyle=orthogonalEdgeStyle;rounded=0;orthogonalLoop=1;jettySize=auto;html=1;exitX=1;exitY=0.5;exitDx=0;exitDy=0;entryX=0;entryY=0.5;entryDx=0;entryDy=0;entryPerimeter=0;exitPerimeter=0;fillColor=#fa6800;strokeColor=#C73500;fontFamily=Times New Roman;" parent="1" source="dL0ZDPhnh0uilclcxEB1-52" target="dL0ZDPhnh0uilclcxEB1-54" edge="1">
          <mxGeometry relative="1" as="geometry" />
        </mxCell>
        <mxCell id="dL0ZDPhnh0uilclcxEB1-4" style="edgeStyle=orthogonalEdgeStyle;rounded=0;orthogonalLoop=1;jettySize=auto;html=1;exitX=0.5;exitY=1;exitDx=0;exitDy=0;entryX=0;entryY=0.5;entryDx=0;entryDy=0;fillColor=#a0522d;strokeColor=#6D1F00;fontFamily=Times New Roman;" parent="1" source="dL0ZDPhnh0uilclcxEB1-5" target="dL0ZDPhnh0uilclcxEB1-41" edge="1">
          <mxGeometry relative="1" as="geometry" />
        </mxCell>
        <mxCell id="dL0ZDPhnh0uilclcxEB1-5" value="Gain enhanced&amp;nbsp;&lt;br&gt;subband&amp;nbsp;waveforms&amp;nbsp;" style="rounded=1;whiteSpace=wrap;html=1;strokeColor=default;fontFamily=Times New Roman;" parent="1" vertex="1">
          <mxGeometry x="2035.25" y="290" width="124" height="30" as="geometry" />
        </mxCell>
        <mxCell id="dL0ZDPhnh0uilclcxEB1-118" style="edgeStyle=orthogonalEdgeStyle;rounded=0;orthogonalLoop=1;jettySize=auto;html=1;exitX=0.5;exitY=1;exitDx=0;exitDy=0;entryX=0.5;entryY=0;entryDx=0;entryDy=0;fontFamily=Times New Roman;" parent="1" source="dL0ZDPhnh0uilclcxEB1-30" target="dL0ZDPhnh0uilclcxEB1-100" edge="1">
          <mxGeometry relative="1" as="geometry" />
        </mxCell>
        <mxCell id="dL0ZDPhnh0uilclcxEB1-30" value="Gammatone Feature" style="rounded=1;whiteSpace=wrap;html=1;fontFamily=Times New Roman;" parent="1" vertex="1">
          <mxGeometry x="1806" y="3.999999999999993" width="75" height="31.25" as="geometry" />
        </mxCell>
        <mxCell id="dL0ZDPhnh0uilclcxEB1-31" value="FC K" style="rounded=0;whiteSpace=wrap;html=1;fillColor=#ffe6cc;strokeColor=#d79b00;fontFamily=Times New Roman;" parent="1" vertex="1">
          <mxGeometry x="2066.5" y="108.5" width="61.5" height="30" as="geometry" />
        </mxCell>
        <mxCell id="dL0ZDPhnh0uilclcxEB1-32" style="edgeStyle=orthogonalEdgeStyle;rounded=0;orthogonalLoop=1;jettySize=auto;html=1;exitX=0.5;exitY=1;exitDx=0;exitDy=0;entryX=0.5;entryY=0;entryDx=0;entryDy=0;entryPerimeter=0;fontFamily=Times New Roman;" parent="1" source="dL0ZDPhnh0uilclcxEB1-33" target="dL0ZDPhnh0uilclcxEB1-52" edge="1">
          <mxGeometry relative="1" as="geometry" />
        </mxCell>
        <mxCell id="dL0ZDPhnh0uilclcxEB1-33" value="Gain" style="rounded=1;whiteSpace=wrap;html=1;fontFamily=Times New Roman;" parent="1" vertex="1">
          <mxGeometry x="2075.25" y="177" width="44" height="30" as="geometry" />
        </mxCell>
        <mxCell id="dL0ZDPhnh0uilclcxEB1-34" style="edgeStyle=orthogonalEdgeStyle;rounded=0;orthogonalLoop=1;jettySize=auto;html=1;exitX=0.5;exitY=1;exitDx=0;exitDy=0;entryX=0.5;entryY=0;entryDx=0;entryDy=0;entryPerimeter=0;fillColor=#fa6800;strokeColor=#C73500;fontFamily=Times New Roman;" parent="1" source="dL0ZDPhnh0uilclcxEB1-35" target="dL0ZDPhnh0uilclcxEB1-54" edge="1">
          <mxGeometry relative="1" as="geometry">
            <Array as="points">
              <mxPoint x="2212" y="238" />
              <mxPoint x="2212" y="238" />
            </Array>
          </mxGeometry>
        </mxCell>
        <mxCell id="dL0ZDPhnh0uilclcxEB1-35" value="Gain enhanced subband tuning weight" style="rounded=1;whiteSpace=wrap;html=1;fontFamily=Times New Roman;" parent="1" vertex="1">
          <mxGeometry x="2164.5" y="170.13" width="95" height="43.75" as="geometry" />
        </mxCell>
        <mxCell id="dL0ZDPhnh0uilclcxEB1-36" style="edgeStyle=orthogonalEdgeStyle;rounded=0;orthogonalLoop=1;jettySize=auto;html=1;exitX=0.5;exitY=1;exitDx=0;exitDy=0;entryX=0.5;entryY=0;entryDx=0;entryDy=0;entryPerimeter=0;fillColor=#fa6800;strokeColor=#C73500;fontFamily=Times New Roman;" parent="1" source="dL0ZDPhnh0uilclcxEB1-37" target="dL0ZDPhnh0uilclcxEB1-56" edge="1">
          <mxGeometry relative="1" as="geometry" />
        </mxCell>
        <mxCell id="dL0ZDPhnh0uilclcxEB1-37" value="Harmonic weight" style="rounded=1;whiteSpace=wrap;html=1;fontFamily=Times New Roman;" parent="1" vertex="1">
          <mxGeometry x="2269" y="170.13" width="114" height="43.75" as="geometry" />
        </mxCell>
        <mxCell id="dL0ZDPhnh0uilclcxEB1-38" value="FC 1" style="rounded=0;whiteSpace=wrap;html=1;fillColor=#ffe6cc;strokeColor=#d79b00;fontFamily=Times New Roman;" parent="1" vertex="1">
          <mxGeometry x="2410" y="108.5" width="60" height="30" as="geometry" />
        </mxCell>
        <mxCell id="dL0ZDPhnh0uilclcxEB1-39" style="edgeStyle=orthogonalEdgeStyle;rounded=0;orthogonalLoop=1;jettySize=auto;html=1;exitX=0.5;exitY=1;exitDx=0;exitDy=0;entryX=0.5;entryY=0;entryDx=0;entryDy=0;fontFamily=Times New Roman;" parent="1" source="dL0ZDPhnh0uilclcxEB1-40" target="dL0ZDPhnh0uilclcxEB1-2" edge="1">
          <mxGeometry relative="1" as="geometry" />
        </mxCell>
        <mxCell id="dL0ZDPhnh0uilclcxEB1-40" value="Pitch" style="rounded=1;whiteSpace=wrap;html=1;fontFamily=Times New Roman;" parent="1" vertex="1">
          <mxGeometry x="2418" y="177" width="44" height="30" as="geometry" />
        </mxCell>
        <mxCell id="S4DQuL0AChRIHme5D5WO-2" style="edgeStyle=orthogonalEdgeStyle;rounded=0;orthogonalLoop=1;jettySize=auto;html=1;exitX=0.5;exitY=1;exitDx=0;exitDy=0;entryX=0.5;entryY=0;entryDx=0;entryDy=0;" parent="1" source="dL0ZDPhnh0uilclcxEB1-41" target="S4DQuL0AChRIHme5D5WO-1" edge="1">
          <mxGeometry relative="1" as="geometry" />
        </mxCell>
        <mxCell id="dL0ZDPhnh0uilclcxEB1-41" value="Harmonic&amp;nbsp;compensated subband waveforms" style="rounded=1;whiteSpace=wrap;html=1;strokeColor=default;fontFamily=Times New Roman;" parent="1" vertex="1">
          <mxGeometry x="2200" y="325" width="139" height="30" as="geometry" />
        </mxCell>
        <mxCell id="dL0ZDPhnh0uilclcxEB1-42" value="FC K" style="rounded=0;whiteSpace=wrap;html=1;fillColor=#ffe6cc;strokeColor=#d79b00;fontFamily=Times New Roman;" parent="1" vertex="1">
          <mxGeometry x="2296" y="108.5" width="60" height="30" as="geometry" />
        </mxCell>
        <mxCell id="dL0ZDPhnh0uilclcxEB1-43" value="FC K" style="rounded=0;whiteSpace=wrap;html=1;fillColor=#ffe6cc;strokeColor=#d79b00;fontFamily=Times New Roman;" parent="1" vertex="1">
          <mxGeometry x="2180" y="108.5" width="63" height="30" as="geometry" />
        </mxCell>
        <mxCell id="dL0ZDPhnh0uilclcxEB1-47" style="edgeStyle=orthogonalEdgeStyle;rounded=0;orthogonalLoop=1;jettySize=auto;html=1;exitX=0.5;exitY=1;exitDx=0;exitDy=0;entryX=0;entryY=0.5;entryDx=0;entryDy=0;entryPerimeter=0;fontFamily=Times New Roman;" parent="1" source="dL0ZDPhnh0uilclcxEB1-48" target="dL0ZDPhnh0uilclcxEB1-52" edge="1">
          <mxGeometry relative="1" as="geometry" />
        </mxCell>
        <mxCell id="dL0ZDPhnh0uilclcxEB1-48" value="Noisy speech subband&amp;nbsp;waveforms&amp;nbsp;" style="rounded=1;whiteSpace=wrap;html=1;strokeColor=default;fontFamily=Times New Roman;" parent="1" vertex="1">
          <mxGeometry x="1979.25" y="8.629999999999994" width="124" height="30" as="geometry" />
        </mxCell>
        <mxCell id="dL0ZDPhnh0uilclcxEB1-49" style="edgeStyle=orthogonalEdgeStyle;rounded=0;orthogonalLoop=1;jettySize=auto;html=1;exitX=0.5;exitY=1;exitDx=0;exitDy=0;entryX=1;entryY=0.5;entryDx=0;entryDy=0;entryPerimeter=0;fillColor=#fa6800;strokeColor=#C73500;fontFamily=Times New Roman;" parent="1" source="dL0ZDPhnh0uilclcxEB1-50" target="dL0ZDPhnh0uilclcxEB1-56" edge="1">
          <mxGeometry relative="1" as="geometry">
            <mxPoint x="2355" y="273" as="targetPoint" />
            <Array as="points">
              <mxPoint x="2405" y="38" />
              <mxPoint x="2405" y="273" />
            </Array>
          </mxGeometry>
        </mxCell>
        <mxCell id="dL0ZDPhnh0uilclcxEB1-50" value="Comb-filter enhanced&lt;br&gt;&amp;nbsp;subband&amp;nbsp;waveforms&amp;nbsp;" style="rounded=1;whiteSpace=wrap;html=1;strokeColor=default;fontFamily=Times New Roman;" parent="1" vertex="1">
          <mxGeometry x="2343.5" y="7.999999999999993" width="124" height="30" as="geometry" />
        </mxCell>
        <mxCell id="dL0ZDPhnh0uilclcxEB1-51" style="edgeStyle=orthogonalEdgeStyle;rounded=0;orthogonalLoop=1;jettySize=auto;html=1;exitX=0.5;exitY=1;exitDx=0;exitDy=0;exitPerimeter=0;entryX=0.5;entryY=0;entryDx=0;entryDy=0;fontFamily=Times New Roman;" parent="1" source="dL0ZDPhnh0uilclcxEB1-52" target="dL0ZDPhnh0uilclcxEB1-5" edge="1">
          <mxGeometry relative="1" as="geometry" />
        </mxCell>
        <mxCell id="dL0ZDPhnh0uilclcxEB1-52" value="" style="verticalLabelPosition=bottom;verticalAlign=top;html=1;shape=mxgraph.flowchart.or;fontFamily=Times New Roman;" parent="1" vertex="1">
          <mxGeometry x="2083.25" y="240" width="28" height="28" as="geometry" />
        </mxCell>
        <mxCell id="dL0ZDPhnh0uilclcxEB1-53" style="edgeStyle=orthogonalEdgeStyle;rounded=0;orthogonalLoop=1;jettySize=auto;html=1;exitX=0.5;exitY=1;exitDx=0;exitDy=0;exitPerimeter=0;entryX=0.5;entryY=0;entryDx=0;entryDy=0;fillColor=#fa6800;strokeColor=#C73500;fontFamily=Times New Roman;" parent="1" source="dL0ZDPhnh0uilclcxEB1-54" target="dL0ZDPhnh0uilclcxEB1-41" edge="1">
          <mxGeometry relative="1" as="geometry" />
        </mxCell>
        <mxCell id="dL0ZDPhnh0uilclcxEB1-54" value="" style="verticalLabelPosition=bottom;verticalAlign=top;html=1;shape=mxgraph.flowchart.or;fontFamily=Times New Roman;" parent="1" vertex="1">
          <mxGeometry x="2198" y="240" width="28" height="28" as="geometry" />
        </mxCell>
        <mxCell id="dL0ZDPhnh0uilclcxEB1-55" style="edgeStyle=orthogonalEdgeStyle;rounded=0;orthogonalLoop=1;jettySize=auto;html=1;exitX=0.5;exitY=1;exitDx=0;exitDy=0;exitPerimeter=0;entryX=0.5;entryY=0;entryDx=0;entryDy=0;fillColor=#fa6800;strokeColor=#C73500;fontFamily=Times New Roman;" parent="1" source="dL0ZDPhnh0uilclcxEB1-56" target="dL0ZDPhnh0uilclcxEB1-41" edge="1">
          <mxGeometry relative="1" as="geometry" />
        </mxCell>
        <mxCell id="dL0ZDPhnh0uilclcxEB1-56" value="" style="verticalLabelPosition=bottom;verticalAlign=top;html=1;shape=mxgraph.flowchart.or;fontFamily=Times New Roman;" parent="1" vertex="1">
          <mxGeometry x="2312" y="240" width="28" height="28" as="geometry" />
        </mxCell>
        <mxCell id="dL0ZDPhnh0uilclcxEB1-57" value="" style="group;fontFamily=Times New Roman;" parent="1" vertex="1" connectable="0">
          <mxGeometry x="1924.75" y="419.5" width="110" height="55" as="geometry" />
        </mxCell>
        <mxCell id="dL0ZDPhnh0uilclcxEB1-58" value="" style="rounded=0;whiteSpace=wrap;html=1;fillColor=#dae8fc;strokeColor=#6c8ebf;fontFamily=Times New Roman;" parent="dL0ZDPhnh0uilclcxEB1-57" vertex="1">
          <mxGeometry x="45" width="20" height="20" as="geometry" />
        </mxCell>
        <mxCell id="dL0ZDPhnh0uilclcxEB1-59" value="2D&amp;nbsp;Convolutional&amp;nbsp;Neural&amp;nbsp;Network" style="rounded=0;whiteSpace=wrap;html=1;strokeColor=none;fillColor=none;fontFamily=Times New Roman;" parent="dL0ZDPhnh0uilclcxEB1-57" vertex="1">
          <mxGeometry y="25" width="110" height="30" as="geometry" />
        </mxCell>
        <mxCell id="dL0ZDPhnh0uilclcxEB1-60" value="" style="group;fillColor=none;fontFamily=Times New Roman;" parent="1" vertex="1" connectable="0">
          <mxGeometry x="2112.5" y="419.5" width="110" height="55" as="geometry" />
        </mxCell>
        <mxCell id="dL0ZDPhnh0uilclcxEB1-61" value="" style="rounded=0;whiteSpace=wrap;html=1;fillColor=#ffe6cc;strokeColor=#d79b00;fontFamily=Times New Roman;" parent="dL0ZDPhnh0uilclcxEB1-60" vertex="1">
          <mxGeometry x="30" width="20" height="20" as="geometry" />
        </mxCell>
        <mxCell id="dL0ZDPhnh0uilclcxEB1-62" value="Fully&amp;nbsp;Connected&amp;nbsp;Neural&amp;nbsp;Network" style="rounded=0;whiteSpace=wrap;html=1;strokeColor=none;fillColor=none;fontFamily=Times New Roman;" parent="dL0ZDPhnh0uilclcxEB1-60" vertex="1">
          <mxGeometry y="25" width="110" height="30" as="geometry" />
        </mxCell>
        <mxCell id="dL0ZDPhnh0uilclcxEB1-63" value="" style="group;fontFamily=Times New Roman;" parent="1" vertex="1" connectable="0">
          <mxGeometry x="2227" y="419.5" width="150" height="53.75" as="geometry" />
        </mxCell>
        <mxCell id="dL0ZDPhnh0uilclcxEB1-64" value="APNet Model" style="rounded=0;whiteSpace=wrap;html=1;strokeColor=none;fillColor=none;fontFamily=Times New Roman;" parent="dL0ZDPhnh0uilclcxEB1-63" vertex="1">
          <mxGeometry y="27.5" width="150" height="26.25" as="geometry" />
        </mxCell>
        <mxCell id="dL0ZDPhnh0uilclcxEB1-65" value="" style="rounded=1;whiteSpace=wrap;html=1;fillColor=#fffdf7;strokeColor=#998080;fontColor=#ffffff;fontFamily=Times New Roman;" parent="dL0ZDPhnh0uilclcxEB1-63" vertex="1">
          <mxGeometry x="57" width="20" height="20" as="geometry" />
        </mxCell>
        <mxCell id="dL0ZDPhnh0uilclcxEB1-66" value="" style="group;fontFamily=Times New Roman;" parent="1" vertex="1" connectable="0">
          <mxGeometry x="1754" y="418.5" width="150" height="53.75" as="geometry" />
        </mxCell>
        <mxCell id="dL0ZDPhnh0uilclcxEB1-67" value="Different Features" style="rounded=0;whiteSpace=wrap;html=1;strokeColor=none;fillColor=none;fontFamily=Times New Roman;" parent="dL0ZDPhnh0uilclcxEB1-66" vertex="1">
          <mxGeometry y="27.5" width="150" height="26.25" as="geometry" />
        </mxCell>
        <mxCell id="dL0ZDPhnh0uilclcxEB1-68" value="" style="rounded=1;whiteSpace=wrap;html=1;fillColor=#FFFFFF;strokeColor=#000000;fontFamily=Times New Roman;" parent="dL0ZDPhnh0uilclcxEB1-66" vertex="1">
          <mxGeometry x="65" y="1" width="20" height="20" as="geometry" />
        </mxCell>
        <mxCell id="dL0ZDPhnh0uilclcxEB1-70" value="" style="endArrow=classic;html=1;rounded=0;fillColor=#fa6800;strokeColor=#C73500;fontFamily=Times New Roman;" parent="1" edge="1">
          <mxGeometry width="50" height="50" relative="1" as="geometry">
            <mxPoint x="2144.75" y="497.26" as="sourcePoint" />
            <mxPoint x="2194.75" y="497.26" as="targetPoint" />
          </mxGeometry>
        </mxCell>
        <mxCell id="dL0ZDPhnh0uilclcxEB1-71" value="Voice&amp;nbsp;processing" style="rounded=0;whiteSpace=wrap;html=1;strokeColor=none;fillColor=none;fontFamily=Times New Roman;" parent="1" vertex="1">
          <mxGeometry x="2095.25" y="517.26" width="150" height="26.25" as="geometry" />
        </mxCell>
        <mxCell id="dL0ZDPhnh0uilclcxEB1-78" value="" style="verticalLabelPosition=bottom;verticalAlign=top;html=1;shape=mxgraph.flowchart.or;fontFamily=Times New Roman;" parent="1" vertex="1">
          <mxGeometry x="2049.25" y="485.25" width="28" height="28" as="geometry" />
        </mxCell>
        <mxCell id="dL0ZDPhnh0uilclcxEB1-79" value="Multiply" style="rounded=0;whiteSpace=wrap;html=1;strokeColor=none;fillColor=none;fontFamily=Times New Roman;" parent="1" vertex="1">
          <mxGeometry x="1988.25" y="517.26" width="150" height="26.25" as="geometry" />
        </mxCell>
        <mxCell id="dL0ZDPhnh0uilclcxEB1-80" style="edgeStyle=orthogonalEdgeStyle;rounded=0;orthogonalLoop=1;jettySize=auto;html=1;exitX=0.5;exitY=1;exitDx=0;exitDy=0;entryX=0.5;entryY=0;entryDx=0;entryDy=0;fontFamily=Times New Roman;" parent="1" source="dL0ZDPhnh0uilclcxEB1-81" target="dL0ZDPhnh0uilclcxEB1-33" edge="1">
          <mxGeometry relative="1" as="geometry" />
        </mxCell>
        <mxCell id="dL0ZDPhnh0uilclcxEB1-81" value="" style="rounded=0;whiteSpace=wrap;html=1;fillColor=#e1d5e7;strokeColor=#9673a6;fontFamily=Times New Roman;" parent="1" vertex="1">
          <mxGeometry x="2066.5" y="140.5" width="61.5" height="7.5" as="geometry" />
        </mxCell>
        <mxCell id="dL0ZDPhnh0uilclcxEB1-82" style="edgeStyle=orthogonalEdgeStyle;rounded=0;orthogonalLoop=1;jettySize=auto;html=1;exitX=0.5;exitY=1;exitDx=0;exitDy=0;entryX=0.5;entryY=0;entryDx=0;entryDy=0;fontFamily=Times New Roman;" parent="1" source="dL0ZDPhnh0uilclcxEB1-83" target="dL0ZDPhnh0uilclcxEB1-35" edge="1">
          <mxGeometry relative="1" as="geometry" />
        </mxCell>
        <mxCell id="dL0ZDPhnh0uilclcxEB1-83" value="" style="rounded=0;whiteSpace=wrap;html=1;fillColor=#e1d5e7;strokeColor=#9673a6;fontFamily=Times New Roman;" parent="1" vertex="1">
          <mxGeometry x="2180" y="140.5" width="63" height="7.25" as="geometry" />
        </mxCell>
        <mxCell id="dL0ZDPhnh0uilclcxEB1-84" style="edgeStyle=orthogonalEdgeStyle;rounded=0;orthogonalLoop=1;jettySize=auto;html=1;exitX=0.5;exitY=1;exitDx=0;exitDy=0;entryX=0.5;entryY=0;entryDx=0;entryDy=0;fontFamily=Times New Roman;" parent="1" source="dL0ZDPhnh0uilclcxEB1-85" target="dL0ZDPhnh0uilclcxEB1-37" edge="1">
          <mxGeometry relative="1" as="geometry" />
        </mxCell>
        <mxCell id="dL0ZDPhnh0uilclcxEB1-85" value="" style="rounded=0;whiteSpace=wrap;html=1;fillColor=#e1d5e7;strokeColor=#9673a6;fontFamily=Times New Roman;" parent="1" vertex="1">
          <mxGeometry x="2296" y="140.5" width="60" height="7.5" as="geometry" />
        </mxCell>
        <mxCell id="dL0ZDPhnh0uilclcxEB1-86" style="edgeStyle=orthogonalEdgeStyle;rounded=0;orthogonalLoop=1;jettySize=auto;html=1;exitX=0.5;exitY=1;exitDx=0;exitDy=0;entryX=0.5;entryY=0;entryDx=0;entryDy=0;fontFamily=Times New Roman;" parent="1" source="dL0ZDPhnh0uilclcxEB1-87" target="dL0ZDPhnh0uilclcxEB1-40" edge="1">
          <mxGeometry relative="1" as="geometry" />
        </mxCell>
        <mxCell id="dL0ZDPhnh0uilclcxEB1-87" value="&amp;nbsp;" style="rounded=0;whiteSpace=wrap;html=1;fillColor=#e1d5e7;strokeColor=#9673a6;fontFamily=Times New Roman;" parent="1" vertex="1">
          <mxGeometry x="2410" y="140.5" width="60" height="7.5" as="geometry" />
        </mxCell>
        <mxCell id="dL0ZDPhnh0uilclcxEB1-88" value="" style="rounded=0;whiteSpace=wrap;html=1;fillColor=#f8cecc;strokeColor=#b85450;fontFamily=Times New Roman;" parent="1" vertex="1">
          <mxGeometry x="1797.5" y="492.885" width="63" height="7.25" as="geometry" />
        </mxCell>
        <mxCell id="dL0ZDPhnh0uilclcxEB1-89" value="Average Pooling" style="rounded=0;whiteSpace=wrap;html=1;strokeColor=none;fillColor=none;fontFamily=Times New Roman;" parent="1" vertex="1">
          <mxGeometry x="1754" y="517.26" width="150" height="26.25" as="geometry" />
        </mxCell>
        <mxCell id="dL0ZDPhnh0uilclcxEB1-90" value="" style="rounded=0;whiteSpace=wrap;html=1;fillColor=#d5e8d4;strokeColor=#82b366;fontFamily=Times New Roman;" parent="1" vertex="1">
          <mxGeometry x="2393.25" y="419.5" width="20" height="20" as="geometry" />
        </mxCell>
        <mxCell id="dL0ZDPhnh0uilclcxEB1-91" value="Self-attention" style="rounded=0;whiteSpace=wrap;html=1;strokeColor=none;fillColor=none;fontFamily=Times New Roman;" parent="1" vertex="1">
          <mxGeometry x="2322" y="444.5" width="160" height="30" as="geometry" />
        </mxCell>
        <mxCell id="dL0ZDPhnh0uilclcxEB1-92" style="edgeStyle=orthogonalEdgeStyle;rounded=0;orthogonalLoop=1;jettySize=auto;html=1;exitX=1;exitY=0.5;exitDx=0;exitDy=0;entryX=0.5;entryY=1;entryDx=0;entryDy=0;fontFamily=Times New Roman;" parent="1" source="dL0ZDPhnh0uilclcxEB1-93" target="dL0ZDPhnh0uilclcxEB1-107" edge="1">
          <mxGeometry relative="1" as="geometry">
            <mxPoint x="1971.75" y="323" as="targetPoint" />
          </mxGeometry>
        </mxCell>
        <mxCell id="dL0ZDPhnh0uilclcxEB1-93" value="SA" style="rounded=0;whiteSpace=wrap;html=1;fillColor=#d5e8d4;strokeColor=#82b366;fontFamily=Times New Roman;" parent="1" vertex="1">
          <mxGeometry x="1882" y="360" width="50" height="20" as="geometry" />
        </mxCell>
        <mxCell id="dL0ZDPhnh0uilclcxEB1-94" style="edgeStyle=orthogonalEdgeStyle;rounded=0;orthogonalLoop=1;jettySize=auto;html=1;exitX=0.5;exitY=1;exitDx=0;exitDy=0;entryX=0;entryY=0.5;entryDx=0;entryDy=0;fontFamily=Times New Roman;" parent="1" source="dL0ZDPhnh0uilclcxEB1-105" target="dL0ZDPhnh0uilclcxEB1-93" edge="1">
          <mxGeometry relative="1" as="geometry">
            <mxPoint x="1841.75" y="323" as="sourcePoint" />
          </mxGeometry>
        </mxCell>
        <mxCell id="dL0ZDPhnh0uilclcxEB1-99" style="edgeStyle=orthogonalEdgeStyle;rounded=0;orthogonalLoop=1;jettySize=auto;html=1;exitX=0.5;exitY=1;exitDx=0;exitDy=0;entryX=0.5;entryY=0;entryDx=0;entryDy=0;fillColor=#dae8fc;strokeColor=#000000;fontFamily=Times New Roman;" parent="1" source="dL0ZDPhnh0uilclcxEB1-100" target="dL0ZDPhnh0uilclcxEB1-102" edge="1">
          <mxGeometry relative="1" as="geometry" />
        </mxCell>
        <mxCell id="dL0ZDPhnh0uilclcxEB1-116" style="edgeStyle=orthogonalEdgeStyle;rounded=0;orthogonalLoop=1;jettySize=auto;html=1;exitX=1;exitY=0.5;exitDx=0;exitDy=0;entryX=0;entryY=0.5;entryDx=0;entryDy=0;fontFamily=Times New Roman;" parent="1" source="dL0ZDPhnh0uilclcxEB1-100" target="dL0ZDPhnh0uilclcxEB1-112" edge="1">
          <mxGeometry relative="1" as="geometry" />
        </mxCell>
        <mxCell id="dL0ZDPhnh0uilclcxEB1-100" value="Conv2D &lt;br&gt;C=33&amp;nbsp;&lt;div&gt;Kernel=5 ×&amp;nbsp;1&lt;/div&gt;" style="rounded=0;whiteSpace=wrap;html=1;fillColor=#dae8fc;strokeColor=#6c8ebf;fontFamily=Times New Roman;" parent="1" vertex="1">
          <mxGeometry x="1803.25" y="65" width="80" height="45" as="geometry" />
        </mxCell>
        <mxCell id="dL0ZDPhnh0uilclcxEB1-101" style="edgeStyle=orthogonalEdgeStyle;rounded=0;orthogonalLoop=1;jettySize=auto;html=1;exitX=0.5;exitY=1;exitDx=0;exitDy=0;entryX=0.5;entryY=0;entryDx=0;entryDy=0;fillColor=#dae8fc;strokeColor=#000000;fontFamily=Times New Roman;" parent="1" source="dL0ZDPhnh0uilclcxEB1-102" target="dL0ZDPhnh0uilclcxEB1-104" edge="1">
          <mxGeometry relative="1" as="geometry" />
        </mxCell>
        <mxCell id="dL0ZDPhnh0uilclcxEB1-115" style="edgeStyle=orthogonalEdgeStyle;rounded=0;orthogonalLoop=1;jettySize=auto;html=1;exitX=1;exitY=0.5;exitDx=0;exitDy=0;fontFamily=Times New Roman;" parent="1" source="dL0ZDPhnh0uilclcxEB1-102" target="dL0ZDPhnh0uilclcxEB1-111" edge="1">
          <mxGeometry relative="1" as="geometry" />
        </mxCell>
        <mxCell id="dL0ZDPhnh0uilclcxEB1-102" value="Conv2D&amp;nbsp;&lt;br&gt;C=33 × 2 Kernel=3 ×&amp;nbsp;1" style="rounded=0;whiteSpace=wrap;html=1;fillColor=#dae8fc;strokeColor=#6c8ebf;fontFamily=Times New Roman;" parent="1" vertex="1">
          <mxGeometry x="1803.25" y="135" width="80" height="45" as="geometry" />
        </mxCell>
        <mxCell id="dL0ZDPhnh0uilclcxEB1-103" style="edgeStyle=orthogonalEdgeStyle;rounded=0;orthogonalLoop=1;jettySize=auto;html=1;exitX=0.5;exitY=1;exitDx=0;exitDy=0;entryX=0.5;entryY=0;entryDx=0;entryDy=0;fillColor=#dae8fc;strokeColor=#000000;fontFamily=Times New Roman;" parent="1" source="dL0ZDPhnh0uilclcxEB1-104" target="dL0ZDPhnh0uilclcxEB1-105" edge="1">
          <mxGeometry relative="1" as="geometry" />
        </mxCell>
        <mxCell id="dL0ZDPhnh0uilclcxEB1-114" style="edgeStyle=orthogonalEdgeStyle;rounded=0;orthogonalLoop=1;jettySize=auto;html=1;exitX=1;exitY=0.5;exitDx=0;exitDy=0;entryX=0;entryY=0.5;entryDx=0;entryDy=0;fontFamily=Times New Roman;" parent="1" source="dL0ZDPhnh0uilclcxEB1-104" target="dL0ZDPhnh0uilclcxEB1-109" edge="1">
          <mxGeometry relative="1" as="geometry" />
        </mxCell>
        <mxCell id="dL0ZDPhnh0uilclcxEB1-104" value="Conv2D&amp;nbsp;&lt;br&gt;C=33 ×&amp;nbsp;3 Kernel=2 ×&amp;nbsp;1" style="rounded=0;whiteSpace=wrap;html=1;fillColor=#dae8fc;strokeColor=#6c8ebf;fontFamily=Times New Roman;" parent="1" vertex="1">
          <mxGeometry x="1803.25" y="205" width="80" height="45" as="geometry" />
        </mxCell>
        <mxCell id="dL0ZDPhnh0uilclcxEB1-113" style="edgeStyle=orthogonalEdgeStyle;rounded=0;orthogonalLoop=1;jettySize=auto;html=1;exitX=1;exitY=0.5;exitDx=0;exitDy=0;entryX=0;entryY=0.5;entryDx=0;entryDy=0;fontFamily=Times New Roman;" parent="1" source="dL0ZDPhnh0uilclcxEB1-105" target="dL0ZDPhnh0uilclcxEB1-107" edge="1">
          <mxGeometry relative="1" as="geometry" />
        </mxCell>
        <mxCell id="dL0ZDPhnh0uilclcxEB1-105" value="Conv2D&amp;nbsp;&lt;br&gt;C=33 ×&amp;nbsp;4 Kernel=2 ×&amp;nbsp;1" style="rounded=0;whiteSpace=wrap;html=1;fillColor=#dae8fc;strokeColor=#6c8ebf;fontFamily=Times New Roman;" parent="1" vertex="1">
          <mxGeometry x="1803.25" y="275" width="80" height="45" as="geometry" />
        </mxCell>
        <mxCell id="dL0ZDPhnh0uilclcxEB1-106" style="edgeStyle=orthogonalEdgeStyle;rounded=0;orthogonalLoop=1;jettySize=auto;html=1;exitX=0.5;exitY=0;exitDx=0;exitDy=0;entryX=0.5;entryY=1;entryDx=0;entryDy=0;fillColor=#dae8fc;strokeColor=#000000;fontFamily=Times New Roman;" parent="1" source="dL0ZDPhnh0uilclcxEB1-107" target="dL0ZDPhnh0uilclcxEB1-109" edge="1">
          <mxGeometry relative="1" as="geometry" />
        </mxCell>
        <mxCell id="dL0ZDPhnh0uilclcxEB1-107" value="Conv2D&amp;nbsp;&lt;br&gt;C=33 ×&amp;nbsp;4 Kernel=1 × 1" style="rounded=0;whiteSpace=wrap;html=1;fillColor=#dae8fc;strokeColor=#6c8ebf;fontFamily=Times New Roman;" parent="1" vertex="1">
          <mxGeometry x="1933.25" y="275" width="80" height="45" as="geometry" />
        </mxCell>
        <mxCell id="dL0ZDPhnh0uilclcxEB1-108" style="edgeStyle=orthogonalEdgeStyle;rounded=0;orthogonalLoop=1;jettySize=auto;html=1;exitX=0.5;exitY=0;exitDx=0;exitDy=0;entryX=0.5;entryY=1;entryDx=0;entryDy=0;fillColor=#dae8fc;strokeColor=#000000;fontFamily=Times New Roman;" parent="1" source="dL0ZDPhnh0uilclcxEB1-109" target="dL0ZDPhnh0uilclcxEB1-111" edge="1">
          <mxGeometry relative="1" as="geometry" />
        </mxCell>
        <mxCell id="dL0ZDPhnh0uilclcxEB1-109" value="Conv2D&amp;nbsp;&lt;br&gt;C=33 ×&amp;nbsp;3 Kernel=2 ×&amp;nbsp;1" style="rounded=0;whiteSpace=wrap;html=1;fillColor=#dae8fc;strokeColor=#6c8ebf;fontFamily=Times New Roman;" parent="1" vertex="1">
          <mxGeometry x="1933.25" y="205" width="80" height="45" as="geometry" />
        </mxCell>
        <mxCell id="dL0ZDPhnh0uilclcxEB1-110" style="edgeStyle=orthogonalEdgeStyle;rounded=0;orthogonalLoop=1;jettySize=auto;html=1;exitX=0.5;exitY=0;exitDx=0;exitDy=0;entryX=0.5;entryY=1;entryDx=0;entryDy=0;fillColor=#dae8fc;strokeColor=#000000;fontFamily=Times New Roman;" parent="1" source="dL0ZDPhnh0uilclcxEB1-111" target="dL0ZDPhnh0uilclcxEB1-112" edge="1">
          <mxGeometry relative="1" as="geometry" />
        </mxCell>
        <mxCell id="dL0ZDPhnh0uilclcxEB1-111" value="Conv2D&amp;nbsp;&lt;br&gt;C=33 ×&amp;nbsp;2 Kernel=5 ×&amp;nbsp;1" style="rounded=0;whiteSpace=wrap;html=1;fillColor=#dae8fc;strokeColor=#6c8ebf;fontFamily=Times New Roman;" parent="1" vertex="1">
          <mxGeometry x="1933.25" y="135" width="80" height="45" as="geometry" />
        </mxCell>
        <mxCell id="eazMNfkr8P5mKzoQGKRl-106" style="edgeStyle=orthogonalEdgeStyle;rounded=0;orthogonalLoop=1;jettySize=auto;html=1;exitX=1;exitY=0.5;exitDx=0;exitDy=0;entryX=0.5;entryY=1;entryDx=0;entryDy=0;" parent="1" source="dL0ZDPhnh0uilclcxEB1-112" target="eazMNfkr8P5mKzoQGKRl-105" edge="1">
          <mxGeometry relative="1" as="geometry" />
        </mxCell>
        <mxCell id="dL0ZDPhnh0uilclcxEB1-112" value="Conv2D &lt;br&gt;C=1&lt;div&gt;Kernel=5 ×&amp;nbsp;1&lt;/div&gt;" style="rounded=0;whiteSpace=wrap;html=1;fillColor=#dae8fc;strokeColor=#6c8ebf;fontFamily=Times New Roman;" parent="1" vertex="1">
          <mxGeometry x="1933.25" y="65" width="80" height="45" as="geometry" />
        </mxCell>
        <mxCell id="dL0ZDPhnh0uilclcxEB1-122" value="&lt;span style=&quot;font-family: Helvetica; text-align: left;&quot;&gt;$$\hat{\textbf{w}}_g$$&lt;/span&gt;" style="text;html=1;strokeColor=none;fillColor=none;align=center;verticalAlign=middle;whiteSpace=wrap;rounded=0;strokeWidth=7;fontFamily=Times New Roman;" parent="1" vertex="1">
          <mxGeometry x="2198" y="210" width="60" height="30" as="geometry" />
        </mxCell>
        <mxCell id="dL0ZDPhnh0uilclcxEB1-123" value="&lt;span style=&quot;font-family: Helvetica; text-align: left;&quot;&gt;$$\hat{\textbf{w}}_h$$&lt;/span&gt;" style="text;html=1;strokeColor=none;fillColor=none;align=center;verticalAlign=middle;whiteSpace=wrap;rounded=0;strokeWidth=7;fontFamily=Times New Roman;" parent="1" vertex="1">
          <mxGeometry x="2312" y="210" width="60" height="30" as="geometry" />
        </mxCell>
        <mxCell id="dL0ZDPhnh0uilclcxEB1-124" value="&lt;span style=&quot;font-family: Helvetica; text-align: left;&quot;&gt;$$\hat{\textbf{G}}$$&lt;/span&gt;" style="text;html=1;strokeColor=none;fillColor=none;align=center;verticalAlign=middle;whiteSpace=wrap;rounded=0;strokeWidth=7;fontFamily=Times New Roman;" parent="1" vertex="1">
          <mxGeometry x="2078.25" y="205" width="60" height="30" as="geometry" />
        </mxCell>
        <mxCell id="lscojaRsyQzUvcd1Fd95-1" value="&lt;span style=&quot;text-align: left;&quot;&gt;&lt;font&gt;:B&lt;/font&gt;&lt;/span&gt;&lt;span style=&quot;text-align: left;&quot;&gt;×&lt;/span&gt;&lt;span style=&quot;text-align: left;&quot;&gt;&lt;font&gt;F×1&lt;/font&gt;&lt;/span&gt;&lt;span style=&quot;text-align: left;&quot;&gt;×&lt;/span&gt;&lt;span style=&quot;text-align: left;&quot;&gt;&lt;font&gt;K&lt;/font&gt;&lt;/span&gt;" style="text;html=1;strokeColor=none;fillColor=none;align=center;verticalAlign=middle;whiteSpace=wrap;rounded=0;strokeWidth=7;fontFamily=Times New Roman;" parent="1" vertex="1">
          <mxGeometry x="1856" y="28.25" width="60" height="30" as="geometry" />
        </mxCell>
        <mxCell id="C7viahZJSG1r6KPh_LHN-1" value="&lt;span style=&quot;font-family: Helvetica;&quot;&gt;$$\hat{\textbf{T}}$$&lt;/span&gt;" style="text;whiteSpace=wrap;html=1;imageAspect=1;connectable=1;allowArrows=0;fontFamily=Times New Roman;" parent="1" vertex="1">
          <mxGeometry x="2442" y="190" width="40" height="40" as="geometry" />
        </mxCell>
        <mxCell id="C7viahZJSG1r6KPh_LHN-4" value="&lt;span style=&quot;font-family: Helvetica;&quot;&gt;$$\textbf{M}_e$$&lt;/span&gt;" style="text;whiteSpace=wrap;html=1;fontFamily=Times New Roman;" parent="1" vertex="1">
          <mxGeometry x="1850" y="334" width="50" height="40" as="geometry" />
        </mxCell>
        <mxCell id="C7viahZJSG1r6KPh_LHN-7" value="&lt;span style=&quot;font-family: Helvetica;&quot;&gt;$$\textbf{M}$$&lt;/span&gt;" style="text;whiteSpace=wrap;html=1;fontFamily=Times New Roman;" parent="1" vertex="1">
          <mxGeometry x="1933.25" y="335" width="23" height="30" as="geometry" />
        </mxCell>
        <mxCell id="tSGoali31HbGe8xFUC7L-1" value="&lt;span style=&quot;font-family: Helvetica; text-align: left;&quot;&gt;$$\textbf{U}$$&lt;/span&gt;" style="text;html=1;strokeColor=none;fillColor=none;align=center;verticalAlign=middle;whiteSpace=wrap;rounded=0;strokeWidth=7;fontFamily=Times New Roman;" parent="1" vertex="1">
          <mxGeometry x="1936.75" y="43" width="60" height="30" as="geometry" />
        </mxCell>
        <mxCell id="Hh0wRw1lLY7-SUWANcJn-2" value="$$\hat{\textbf{S}}_g$$" style="text;whiteSpace=wrap;" parent="1" vertex="1">
          <mxGeometry x="2102.5" y="301" width="27.5" height="40" as="geometry" />
        </mxCell>
        <mxCell id="Hh0wRw1lLY7-SUWANcJn-4" value="$$\hat{\textbf{S}}_e$$" style="text;whiteSpace=wrap;" parent="1" vertex="1">
          <mxGeometry x="2275.5" y="338" width="26" height="30" as="geometry" />
        </mxCell>
        <mxCell id="Hh0wRw1lLY7-SUWANcJn-5" value="&lt;span style=&quot;font-family: Helvetica; text-align: left;&quot;&gt;$$\textbf{H}$$&lt;/span&gt;" style="text;html=1;strokeColor=none;fillColor=none;align=center;verticalAlign=middle;whiteSpace=wrap;rounded=0;strokeWidth=7;fontFamily=Times New Roman;" parent="1" vertex="1">
          <mxGeometry x="2387.25" y="32" width="60" height="30" as="geometry" />
        </mxCell>
        <mxCell id="Hh0wRw1lLY7-SUWANcJn-6" value="&lt;span style=&quot;font-family: Helvetica; text-align: left;&quot;&gt;$$\textbf{Y}$$&lt;/span&gt;" style="text;html=1;strokeColor=none;fillColor=none;align=center;verticalAlign=middle;whiteSpace=wrap;rounded=0;strokeWidth=7;fontFamily=Times New Roman;" parent="1" vertex="1">
          <mxGeometry x="2018.25" y="31.25" width="60" height="30" as="geometry" />
        </mxCell>
        <mxCell id="dL0ZDPhnh0uilclcxEB1-77" value="" style="endArrow=classic;html=1;rounded=0;fillColor=#a0522d;strokeColor=#6D1F00;fontFamily=Times New Roman;" parent="1" edge="1">
          <mxGeometry width="50" height="50" relative="1" as="geometry">
            <mxPoint x="2271.5" y="499.8299999999999" as="sourcePoint" />
            <mxPoint x="2321.5" y="499.95000000000005" as="targetPoint" />
          </mxGeometry>
        </mxCell>
        <mxCell id="dL0ZDPhnh0uilclcxEB1-76" value="Unvoice&amp;nbsp;processing" style="rounded=0;whiteSpace=wrap;html=1;strokeColor=none;fillColor=none;fontFamily=Times New Roman;" parent="1" vertex="1">
          <mxGeometry x="2226" y="517.26" width="150" height="26.25" as="geometry" />
        </mxCell>
        <mxCell id="S4DQuL0AChRIHme5D5WO-10" style="edgeStyle=orthogonalEdgeStyle;rounded=0;orthogonalLoop=1;jettySize=auto;html=1;exitX=1;exitY=0.5;exitDx=0;exitDy=0;entryX=0;entryY=0.5;entryDx=0;entryDy=0;" parent="1" source="S4DQuL0AChRIHme5D5WO-1" target="S4DQuL0AChRIHme5D5WO-9" edge="1">
          <mxGeometry relative="1" as="geometry" />
        </mxCell>
        <mxCell id="S4DQuL0AChRIHme5D5WO-1" value="Post-filter" style="rounded=0;whiteSpace=wrap;html=1;strokeColor=#d6b656;fontFamily=Times New Roman;fillColor=#fff2cc;" parent="1" vertex="1">
          <mxGeometry x="2233.5" y="378" width="72" height="30" as="geometry" />
        </mxCell>
        <mxCell id="S4DQuL0AChRIHme5D5WO-9" value="Enhanced subband waveforms" style="rounded=1;whiteSpace=wrap;html=1;strokeColor=default;fontFamily=Times New Roman;" parent="1" vertex="1">
          <mxGeometry x="2347.5" y="378" width="106.5" height="30" as="geometry" />
        </mxCell>
        <mxCell id="S4DQuL0AChRIHme5D5WO-11" value="$$\hat{\textbf{S}}$$" style="text;whiteSpace=wrap;" parent="1" vertex="1">
          <mxGeometry x="2372.5" y="341" width="26" height="30" as="geometry" />
        </mxCell>
        <mxCell id="S4DQuL0AChRIHme5D5WO-12" value="" style="rounded=0;whiteSpace=wrap;html=1;fillColor=#fff2cc;strokeColor=#d6b656;fontFamily=Times New Roman;" parent="1" vertex="1">
          <mxGeometry x="2393.25" y="492.88" width="20" height="20" as="geometry" />
        </mxCell>
        <mxCell id="S4DQuL0AChRIHme5D5WO-13" value="Post-filter" style="rounded=0;whiteSpace=wrap;html=1;strokeColor=none;fillColor=none;fontFamily=Times New Roman;" parent="1" vertex="1">
          <mxGeometry x="2324.5" y="515.38" width="160" height="30" as="geometry" />
        </mxCell>
        <mxCell id="eazMNfkr8P5mKzoQGKRl-107" style="edgeStyle=orthogonalEdgeStyle;rounded=0;orthogonalLoop=1;jettySize=auto;html=1;exitX=0.5;exitY=0;exitDx=0;exitDy=0;entryX=0.5;entryY=0;entryDx=0;entryDy=0;" parent="1" source="eazMNfkr8P5mKzoQGKRl-105" target="dL0ZDPhnh0uilclcxEB1-31" edge="1">
          <mxGeometry relative="1" as="geometry" />
        </mxCell>
        <mxCell id="eazMNfkr8P5mKzoQGKRl-108" style="edgeStyle=orthogonalEdgeStyle;rounded=0;orthogonalLoop=1;jettySize=auto;html=1;exitX=0.5;exitY=0;exitDx=0;exitDy=0;entryX=0.5;entryY=0;entryDx=0;entryDy=0;" parent="1" source="eazMNfkr8P5mKzoQGKRl-105" target="dL0ZDPhnh0uilclcxEB1-43" edge="1">
          <mxGeometry relative="1" as="geometry" />
        </mxCell>
        <mxCell id="eazMNfkr8P5mKzoQGKRl-109" style="edgeStyle=orthogonalEdgeStyle;rounded=0;orthogonalLoop=1;jettySize=auto;html=1;exitX=0.5;exitY=0;exitDx=0;exitDy=0;entryX=0.5;entryY=0;entryDx=0;entryDy=0;" parent="1" source="eazMNfkr8P5mKzoQGKRl-105" target="dL0ZDPhnh0uilclcxEB1-42" edge="1">
          <mxGeometry relative="1" as="geometry" />
        </mxCell>
        <mxCell id="eazMNfkr8P5mKzoQGKRl-110" style="edgeStyle=orthogonalEdgeStyle;rounded=0;orthogonalLoop=1;jettySize=auto;html=1;exitX=0.5;exitY=0;exitDx=0;exitDy=0;entryX=0.5;entryY=0;entryDx=0;entryDy=0;" parent="1" source="eazMNfkr8P5mKzoQGKRl-105" target="dL0ZDPhnh0uilclcxEB1-38" edge="1">
          <mxGeometry relative="1" as="geometry" />
        </mxCell>
        <mxCell id="eazMNfkr8P5mKzoQGKRl-105" value="" style="rounded=0;whiteSpace=wrap;html=1;fontFamily=Times New Roman;rotation=90;fillColor=#f8cecc;strokeColor=#b85450;" parent="1" vertex="1">
          <mxGeometry x="2027" y="83.75" width="61.5" height="7.5" as="geometry" />
        </mxCell>
        <mxCell id="eazMNfkr8P5mKzoQGKRl-112" value="" style="rounded=0;whiteSpace=wrap;html=1;fillColor=#e1d5e7;strokeColor=#9673a6;fontFamily=Times New Roman;" parent="1" vertex="1">
          <mxGeometry x="1933.25" y="492.885" width="63" height="7.25" as="geometry" />
        </mxCell>
        <mxCell id="eazMNfkr8P5mKzoQGKRl-113" value="Sigmoid" style="rounded=0;whiteSpace=wrap;html=1;strokeColor=none;fillColor=none;fontFamily=Times New Roman;" parent="1" vertex="1">
          <mxGeometry x="1893.5" y="517.26" width="150" height="26.25" as="geometry" />
        </mxCell>
        <mxCell id="eazMNfkr8P5mKzoQGKRl-118" value="&lt;span style=&quot;color: rgb(0, 0, 0); font-family: Helvetica; font-size: 12px; font-style: normal; font-variant-ligatures: normal; font-variant-caps: normal; font-weight: 400; letter-spacing: normal; orphans: 2; text-align: left; text-indent: 0px; text-transform: none; widows: 2; word-spacing: 0px; -webkit-text-stroke-width: 0px; white-space: normal; background-color: rgb(251, 251, 251); text-decoration-thickness: initial; text-decoration-style: initial; text-decoration-color: initial; display: inline !important; float: none;&quot;&gt;$$\textbf{E}$$&lt;/span&gt;" style="text;whiteSpace=wrap;html=1;" parent="1" vertex="1">
          <mxGeometry x="1846" y="17.75" width="9.5" height="18.25" as="geometry" />
        </mxCell>
        <mxCell id="eazMNfkr8P5mKzoQGKRl-119" value="&lt;span style=&quot;text-align: left;&quot;&gt;&lt;font&gt;:B&lt;/font&gt;&lt;/span&gt;&lt;span style=&quot;text-align: left;&quot;&gt;×&lt;/span&gt;&lt;span style=&quot;text-align: left;&quot;&gt;&lt;font&gt;K&lt;/font&gt;&lt;/span&gt;&lt;span style=&quot;text-align: left;&quot;&gt;×L&lt;/span&gt;" style="text;html=1;strokeColor=none;fillColor=none;align=center;verticalAlign=middle;whiteSpace=wrap;rounded=0;strokeWidth=7;fontFamily=Georgia;" parent="1" vertex="1">
          <mxGeometry x="2043.5" y="31.25" width="60" height="30" as="geometry" />
        </mxCell>
        <mxCell id="eazMNfkr8P5mKzoQGKRl-120" value="&lt;span style=&quot;text-align: left;&quot;&gt;&lt;font&gt;:B&lt;/font&gt;&lt;/span&gt;&lt;span style=&quot;text-align: left;&quot;&gt;×&lt;/span&gt;&lt;span style=&quot;text-align: left;&quot;&gt;&lt;font&gt;K&lt;/font&gt;&lt;/span&gt;&lt;span style=&quot;text-align: left;&quot;&gt;×L&lt;/span&gt;" style="text;html=1;strokeColor=none;fillColor=none;align=center;verticalAlign=middle;whiteSpace=wrap;rounded=0;strokeWidth=7;fontFamily=Georgia;" parent="1" vertex="1">
          <mxGeometry x="2415.5" y="31.25" width="60" height="30" as="geometry" />
        </mxCell>
        <mxCell id="eazMNfkr8P5mKzoQGKRl-123" value="&lt;span style=&quot;text-align: left;&quot;&gt;&lt;font&gt;:B&lt;/font&gt;&lt;/span&gt;&lt;span style=&quot;text-align: left;&quot;&gt;×&lt;/span&gt;&lt;span style=&quot;text-align: left;&quot;&gt;&lt;font&gt;F&lt;/font&gt;&lt;/span&gt;&lt;span style=&quot;text-align: left;&quot;&gt;×C&lt;/span&gt;&lt;span style=&quot;text-align: left;&quot;&gt;×&lt;/span&gt;&lt;span style=&quot;text-align: left;&quot;&gt;&lt;font&gt;K&lt;/font&gt;&lt;/span&gt;" style="text;html=1;strokeColor=none;fillColor=none;align=center;verticalAlign=middle;whiteSpace=wrap;rounded=0;strokeWidth=7;fontFamily=Times New Roman;" parent="1" vertex="1">
          <mxGeometry x="1947.75" y="345" width="60" height="30" as="geometry" />
        </mxCell>
        <mxCell id="eazMNfkr8P5mKzoQGKRl-124" value="&lt;span style=&quot;text-align: left;&quot;&gt;&lt;font&gt;:B&lt;/font&gt;&lt;/span&gt;&lt;span style=&quot;text-align: left;&quot;&gt;×&lt;/span&gt;&lt;span style=&quot;text-align: left;&quot;&gt;&lt;font&gt;F×1&lt;/font&gt;&lt;/span&gt;&lt;span style=&quot;text-align: left;&quot;&gt;×&lt;/span&gt;&lt;span style=&quot;text-align: left;&quot;&gt;&lt;font&gt;K&lt;/font&gt;&lt;/span&gt;" style="text;html=1;strokeColor=none;fillColor=none;align=center;verticalAlign=middle;whiteSpace=wrap;rounded=0;strokeWidth=7;fontFamily=Times New Roman;" parent="1" vertex="1">
          <mxGeometry x="1970" y="41.63" width="60" height="30" as="geometry" />
        </mxCell>
        <mxCell id="eazMNfkr8P5mKzoQGKRl-125" value="&lt;span style=&quot;font-family: Helvetica; text-align: left;&quot;&gt;$$\textbf{P}$$&lt;/span&gt;" style="text;html=1;strokeColor=none;fillColor=none;align=center;verticalAlign=middle;whiteSpace=wrap;rounded=0;strokeWidth=7;fontFamily=Times New Roman;" parent="1" vertex="1">
          <mxGeometry x="2038.75" y="65.37" width="60" height="30" as="geometry" />
        </mxCell>
        <mxCell id="eazMNfkr8P5mKzoQGKRl-126" value="&lt;span style=&quot;text-align: left;&quot;&gt;&lt;font&gt;:B&lt;/font&gt;&lt;/span&gt;&lt;span style=&quot;text-align: left;&quot;&gt;×&lt;/span&gt;&lt;span style=&quot;text-align: left;&quot;&gt;&lt;font&gt;K&lt;/font&gt;&lt;/span&gt;" style="text;html=1;strokeColor=none;fillColor=none;align=center;verticalAlign=middle;whiteSpace=wrap;rounded=0;strokeWidth=7;fontFamily=Times New Roman;" parent="1" vertex="1">
          <mxGeometry x="2057.25" y="65" width="60" height="30" as="geometry" />
        </mxCell>
        <mxCell id="eazMNfkr8P5mKzoQGKRl-127" value="&lt;span style=&quot;text-align: left;&quot;&gt;&lt;font&gt;:B&lt;/font&gt;&lt;/span&gt;&lt;span style=&quot;text-align: left;&quot;&gt;×&lt;/span&gt;&lt;span style=&quot;text-align: left;&quot;&gt;&lt;font&gt;K&lt;/font&gt;&lt;/span&gt;" style="text;html=1;strokeColor=none;fillColor=none;align=center;verticalAlign=middle;whiteSpace=wrap;rounded=0;strokeWidth=7;fontFamily=Times New Roman;" parent="1" vertex="1">
          <mxGeometry x="2099" y="205.25" width="60" height="30" as="geometry" />
        </mxCell>
        <mxCell id="eazMNfkr8P5mKzoQGKRl-128" value="&lt;span style=&quot;text-align: left;&quot;&gt;&lt;font&gt;:B&lt;/font&gt;&lt;/span&gt;&lt;span style=&quot;text-align: left;&quot;&gt;×&lt;/span&gt;&lt;span style=&quot;text-align: left;&quot;&gt;&lt;font&gt;K&lt;/font&gt;&lt;/span&gt;" style="text;html=1;strokeColor=none;fillColor=none;align=center;verticalAlign=middle;whiteSpace=wrap;rounded=0;strokeWidth=7;fontFamily=Times New Roman;" parent="1" vertex="1">
          <mxGeometry x="2220.5" y="209.5" width="60" height="30" as="geometry" />
        </mxCell>
        <mxCell id="eazMNfkr8P5mKzoQGKRl-129" value="&lt;span style=&quot;text-align: left;&quot;&gt;&lt;font&gt;:B&lt;/font&gt;&lt;/span&gt;&lt;span style=&quot;text-align: left;&quot;&gt;×&lt;/span&gt;&lt;span style=&quot;text-align: left;&quot;&gt;&lt;font&gt;K&lt;/font&gt;&lt;/span&gt;" style="text;html=1;strokeColor=none;fillColor=none;align=center;verticalAlign=middle;whiteSpace=wrap;rounded=0;strokeWidth=7;fontFamily=Times New Roman;" parent="1" vertex="1">
          <mxGeometry x="2337" y="210" width="60" height="30" as="geometry" />
        </mxCell>
        <mxCell id="eazMNfkr8P5mKzoQGKRl-130" value="&lt;span style=&quot;text-align: left;&quot;&gt;&lt;font&gt;:B&lt;/font&gt;&lt;/span&gt;&lt;span style=&quot;text-align: left;&quot;&gt;×1&lt;/span&gt;" style="text;html=1;strokeColor=none;fillColor=none;align=center;verticalAlign=middle;whiteSpace=wrap;rounded=0;strokeWidth=7;fontFamily=Times New Roman;" parent="1" vertex="1">
          <mxGeometry x="2438" y="204" width="60" height="30" as="geometry" />
        </mxCell>
        <mxCell id="eazMNfkr8P5mKzoQGKRl-131" value="&lt;span style=&quot;text-align: left;&quot;&gt;&lt;font&gt;:B&lt;/font&gt;&lt;/span&gt;&lt;span style=&quot;text-align: left;&quot;&gt;×&lt;/span&gt;&lt;span style=&quot;text-align: left;&quot;&gt;&lt;font&gt;K×L&lt;/font&gt;&lt;/span&gt;" style="text;html=1;strokeColor=none;fillColor=none;align=center;verticalAlign=middle;whiteSpace=wrap;rounded=0;strokeWidth=7;fontFamily=Times New Roman;" parent="1" vertex="1">
          <mxGeometry x="2111" y="314" width="60" height="30" as="geometry" />
        </mxCell>
        <mxCell id="eazMNfkr8P5mKzoQGKRl-132" value="&lt;span style=&quot;text-align: left;&quot;&gt;&lt;font&gt;:B&lt;/font&gt;&lt;/span&gt;&lt;span style=&quot;text-align: left;&quot;&gt;×&lt;/span&gt;&lt;span style=&quot;text-align: left;&quot;&gt;&lt;font&gt;K×L&lt;/font&gt;&lt;/span&gt;" style="text;html=1;strokeColor=none;fillColor=none;align=center;verticalAlign=middle;whiteSpace=wrap;rounded=0;strokeWidth=7;fontFamily=Times New Roman;" parent="1" vertex="1">
          <mxGeometry x="2283.5" y="350" width="60" height="30" as="geometry" />
        </mxCell>
        <mxCell id="eazMNfkr8P5mKzoQGKRl-133" value="&lt;span style=&quot;text-align: left;&quot;&gt;&lt;font&gt;:B&lt;/font&gt;&lt;/span&gt;&lt;span style=&quot;text-align: left;&quot;&gt;×&lt;/span&gt;&lt;span style=&quot;text-align: left;&quot;&gt;&lt;font&gt;K×L&lt;/font&gt;&lt;/span&gt;" style="text;html=1;strokeColor=none;fillColor=none;align=center;verticalAlign=middle;whiteSpace=wrap;rounded=0;strokeWidth=7;fontFamily=Times New Roman;" parent="1" vertex="1">
          <mxGeometry x="2374.5" y="355" width="60" height="30" as="geometry" />
        </mxCell>
      </root>
    </mxGraphModel>
  </diagram>
</mxfile>
